<?xml version="1.0" encoding="UTF-8"?>
<svg width="364px" height="71px" viewBox="0 0 364 71" version="1.1" xmlns="http://www.w3.org/2000/svg" xmlns:xlink="http://www.w3.org/1999/xlink">
    <title>logo-outlines</title>
    <g id="Page-1" stroke="none" stroke-width="1" fill="none" fill-rule="evenodd">
        <g id="Frame" transform="translate(-55, -240)">
            <g id="logo-outlines" transform="translate(54.523, 221)">
                <g id="cifagro" transform="translate(65.477, 0)" fill="#505050" fill-rule="nonzero">
                    <path d="M22.3242188,70.4296875 C20.2851562,70.4296875 18.5800781,70.0253906 17.2089844,69.2167969 C15.8378906,68.4082031 14.7421875,67.3476563 13.921875,66.0351563 C13.078125,64.7460937 12.4746094,63.2871094 12.1113281,61.6582031 C11.7480469,60.0292969 11.5664063,58.3828125 11.5664063,56.71875 L11.5664063,55.2421875 C11.5664063,53.6015625 11.7480469,51.9726563 12.1113281,50.3554688 C12.4746094,48.7382812 13.078125,47.2734375 13.921875,45.9609375 C14.765625,44.671875 15.8730469,43.6230469 17.2441406,42.8144531 C18.6152344,42.0058594 20.3085938,41.6015625 22.3242188,41.6015625 C23.6367187,41.6015625 24.8613281,41.8242188 25.9980469,42.2695312 C27.1347656,42.7148437 28.1132812,43.3242188 28.9335937,44.0976563 C29.7539062,44.8710938 30.4042969,45.7675781 30.8847656,46.7871094 C31.3652344,47.8066406 31.6171875,48.890625 31.640625,50.0390625 L37.7929688,50.0390625 C37.7929688,48.1171875 37.40625,46.3125 36.6328125,44.625 C35.859375,42.9375 34.7929688,41.4726562 33.4335938,40.2304687 C32.0507812,39.0117188 30.4160156,38.0449219 28.5292969,37.3300781 C26.6425781,36.6152344 24.5742187,36.2578125 22.3242188,36.2578125 C19.4414063,36.2578125 16.921875,36.7734375 14.765625,37.8046875 C12.609375,38.8359375 10.8164063,40.21875 9.38671875,41.953125 C7.93359375,43.7109375 6.84375,45.7382812 6.1171875,48.0351562 C5.390625,50.3320313 5.02734375,52.734375 5.02734375,55.2421875 L5.02734375,56.71875 C5.02734375,59.25 5.390625,61.6582031 6.1171875,63.9433594 C6.84375,66.2285156 7.93359375,68.2382812 9.38671875,69.9726562 C10.8164063,71.7304688 12.609375,73.125 14.765625,74.15625 C16.921875,75.1875 19.4414063,75.703125 22.3242188,75.703125 C24.3398438,75.703125 26.2734375,75.3574219 28.125,74.6660156 C29.9765625,73.9746094 31.6171875,73.0429688 33.046875,71.8710938 C34.4765625,70.7226563 35.6191406,69.3808594 36.4746094,67.8457031 C37.3300781,66.3105469 37.7695313,64.6992188 37.7929688,63.0117188 L31.640625,63.0117188 C31.6171875,64.0664063 31.3417969,65.0449219 30.8144531,65.9472656 C30.2871094,66.8496094 29.5898438,67.6289062 28.7226562,68.2851563 C27.8554687,68.9648438 26.8652344,69.4921875 25.7519531,69.8671875 C24.6386719,70.2421875 23.4960937,70.4296875 22.3242188,70.4296875 Z" id="Path"></path>
                    <path d="M50.34375,36.9609375 L50.34375,42.6210938 L63.28125,42.6210938 L63.28125,69.375 L50.34375,69.375 L50.34375,75 L82.1953125,75 L82.1953125,69.375 L69.7851562,69.375 L69.7851562,36.9609375 L50.34375,36.9609375 Z M62.4375,26.9765625 C62.4375,28.03125 62.7597656,28.9101562 63.4042969,29.6132813 C64.0488281,30.3164062 65.0273438,30.6679688 66.3398438,30.6679688 C67.6289062,30.6679688 68.6015625,30.3164062 69.2578125,29.6132813 C69.9140625,28.9101562 70.2421875,28.03125 70.2421875,26.9765625 C70.2421875,26.390625 70.1484375,25.8515625 69.9609375,25.359375 C69.7734375,24.8671875 69.4921875,24.4570312 69.1171875,24.1289062 C68.8125,23.8242188 68.4257812,23.5839844 67.9570312,23.4082031 C67.4882812,23.2324219 66.9492188,23.1445312 66.3398438,23.1445312 C65.7304688,23.1445312 65.1855469,23.2324219 64.7050781,23.4082031 C64.2246094,23.5839844 63.8320312,23.8242188 63.5273438,24.1289062 C63.1523438,24.4804688 62.8769531,24.9023438 62.7011719,25.3945313 C62.5253906,25.8867188 62.4375,26.4140625 62.4375,26.9765625 Z" id="Shape"></path>
                    <path d="M102.234375,75 L108.773438,75 L108.773438,41.9882812 L123.433594,41.9882812 L123.433594,36.9609375 L108.773438,36.9609375 L108.773438,34.2890625 C108.773438,32.6953125 108.978516,31.3007812 109.388672,30.1054688 C109.798828,28.9101563 110.402344,27.9375 111.199219,27.1875 C111.949219,26.4609375 112.892578,25.9160156 114.029297,25.5527344 C115.166016,25.1894531 116.472656,25.0078125 117.949219,25.0078125 C119.402344,25.0078125 120.767578,25.1308594 122.044922,25.3769531 C123.322266,25.6230469 124.441406,25.9101563 125.402344,26.2382812 L126.175781,20.859375 C125.566406,20.6953125 124.96875,20.5488281 124.382812,20.4199219 C123.796875,20.2910156 123.210938,20.1679688 122.625,20.0507812 C121.734375,19.8867188 120.832031,19.7519531 119.917969,19.6464844 C119.003906,19.5410156 118.078125,19.4882812 117.140625,19.4882812 C114.890625,19.4882812 112.851562,19.8046875 111.023437,20.4375 C109.195313,21.0703125 107.636719,22.0078125 106.347656,23.25 C105.035156,24.4921875 104.021484,26.0332031 103.306641,27.8730469 C102.591797,29.7128906 102.234375,31.8515625 102.234375,34.2890625 L102.234375,36.9609375 L91.7578125,36.9609375 L91.7578125,41.9882812 L102.234375,41.9882812 L102.234375,75 Z" id="Path"></path>
                    <path d="M160.734375,75 L167.519531,75 L167.519531,74.4375 C167.097656,73.3828125 166.769531,72.1464844 166.535156,70.7285156 C166.300781,69.3105469 166.183594,67.96875 166.183594,66.703125 L166.183594,49.0195313 C166.183594,46.8867188 165.796875,45.0234375 165.023438,43.4296875 C164.25,41.8359375 163.195312,40.5 161.859375,39.421875 C160.5,38.3671875 158.894531,37.5761719 157.042969,37.0488281 C155.191406,36.5214844 153.1875,36.2578125 151.03125,36.2578125 C148.664062,36.2578125 146.548828,36.5859375 144.685547,37.2421875 C142.822266,37.8984375 141.246094,38.7539062 139.957031,39.8085938 C138.644531,40.8867188 137.642578,42.09375 136.951172,43.4296875 C136.259766,44.765625 135.902344,46.125 135.878906,47.5078125 L142.417969,47.5078125 C142.417969,46.7109375 142.611328,45.9433594 142.998047,45.2050781 C143.384766,44.4667969 143.929688,43.828125 144.632812,43.2890625 C145.335938,42.75 146.197266,42.3164062 147.216797,41.9882813 C148.236328,41.6601563 149.390625,41.4960938 150.679688,41.4960938 C152.0625,41.4960938 153.310547,41.671875 154.423828,42.0234375 C155.537109,42.375 156.480469,42.8671875 157.253906,43.5 C158.027344,44.15625 158.625,44.9414063 159.046875,45.8554687 C159.46875,46.7695312 159.679688,47.8007812 159.679688,48.9492188 L159.679688,51.9375 L152.578125,51.9375 C149.929688,51.9375 147.533203,52.1953125 145.388672,52.7109375 C143.244141,53.2265625 141.410156,54 139.886719,55.03125 C138.363281,56.0859375 137.185547,57.3984375 136.353516,58.96875 C135.521484,60.5390625 135.105469,62.3671875 135.105469,64.453125 C135.105469,66.046875 135.416016,67.5292969 136.037109,68.9003906 C136.658203,70.2714844 137.542969,71.4492188 138.691406,72.4335938 C139.816406,73.4414063 141.193359,74.2382813 142.822266,74.8242187 C144.451172,75.4101563 146.273438,75.703125 148.289062,75.703125 C149.53125,75.703125 150.703125,75.5742188 151.804688,75.3164063 C152.90625,75.0585937 153.949219,74.7070313 154.933594,74.2617188 C155.894531,73.8164062 156.779297,73.3007813 157.587891,72.7148438 C158.396484,72.1289063 159.128906,71.5078125 159.785156,70.8515625 C159.855469,71.6484375 159.966797,72.4160156 160.119141,73.1542969 C160.271484,73.8925781 160.476562,74.5078125 160.734375,75 Z M149.238281,70.0429688 C147.972656,70.0429688 146.859375,69.8789062 145.898438,69.5507812 C144.9375,69.2226562 144.140625,68.765625 143.507812,68.1796875 C142.875,67.6171875 142.400391,66.9375 142.083984,66.140625 C141.767578,65.34375 141.609375,64.4765625 141.609375,63.5390625 C141.609375,62.5546875 141.791016,61.6757812 142.154297,60.9023438 C142.517578,60.1289062 143.050781,59.4609375 143.753906,58.8984375 C144.738281,58.1015625 146.068359,57.5097656 147.744141,57.1230469 C149.419922,56.7363281 151.382812,56.5429688 153.632812,56.5429688 L159.679688,56.5429688 L159.679688,64.2421875 C159.304688,64.9921875 158.789062,65.7128906 158.132812,66.4042969 C157.476562,67.0957031 156.703125,67.7109375 155.8125,68.25 C154.898438,68.7890625 153.890625,69.2226562 152.789062,69.5507812 C151.6875,69.8789062 150.503906,70.0429688 149.238281,70.0429688 Z" id="Shape"></path>
                    <path d="M177.75,55.6640625 L177.75,56.4023438 C177.75,59.1210938 178.101562,61.6582031 178.804688,64.0136719 C179.507812,66.3691406 180.515625,68.4140625 181.828125,70.1484375 C183.117188,71.8828125 184.699219,73.2421875 186.574219,74.2265625 C188.449219,75.2109375 190.546875,75.703125 192.867187,75.703125 C194.25,75.703125 195.539062,75.5566406 196.734375,75.2636719 C197.929688,74.9707031 199.019531,74.5546875 200.003906,74.015625 C200.636719,73.6640625 201.228516,73.2539062 201.779297,72.7851563 C202.330078,72.3164063 202.851562,71.8007812 203.34375,71.2382812 L203.34375,74.5078125 C203.34375,76.1484375 203.109375,77.6015625 202.640625,78.8671875 C202.171875,80.1328125 201.503906,81.1875 200.636719,82.03125 C199.746094,82.8984375 198.679688,83.5546875 197.4375,84 C196.195312,84.4453125 194.800781,84.6679688 193.253906,84.6679688 C192.386719,84.6679688 191.519531,84.5800781 190.652344,84.4042969 C189.785156,84.2285156 188.917969,83.9414062 188.050781,83.5429688 C187.183594,83.1445313 186.328125,82.6113281 185.484375,81.9433594 C184.640625,81.2753906 183.820312,80.4609375 183.023438,79.5 L179.648438,83.4023438 C180.515625,84.6445312 181.552734,85.6875 182.759766,86.53125 C183.966797,87.375 185.226563,88.0429687 186.539063,88.5351563 C187.828125,89.0507812 189.105469,89.4199219 190.371094,89.6425781 C191.636719,89.8652344 192.761719,89.9765625 193.746094,89.9765625 C196.136719,89.9765625 198.316406,89.625 200.285156,88.921875 C202.253906,88.21875 203.953125,87.1875 205.382812,85.828125 C206.789062,84.46875 207.884766,82.8164063 208.669922,80.8710938 C209.455078,78.9257812 209.847656,76.6992188 209.847656,74.1914062 L209.847656,36.9609375 L203.941406,36.9609375 L203.625,41.109375 C203.179688,40.546875 202.705078,40.03125 202.201172,39.5625 C201.697266,39.09375 201.164062,38.6835938 200.601562,38.3320312 C199.570312,37.6523438 198.416016,37.1367188 197.138672,36.7851562 C195.861328,36.4335938 194.460938,36.2578125 192.9375,36.2578125 C190.570312,36.2578125 188.449219,36.7382812 186.574219,37.6992188 C184.699219,38.6601562 183.105469,39.9960938 181.792969,41.7070312 C180.480469,43.4179687 179.478516,45.4628906 178.787109,47.8417969 C178.095703,50.2207031 177.75,52.828125 177.75,55.6640625 Z M184.253906,56.4023438 L184.253906,55.6640625 C184.253906,53.8125 184.447266,52.0488281 184.833984,50.3730469 C185.220703,48.6972656 185.835938,47.2148437 186.679688,45.9257812 C187.5,44.6601562 188.560547,43.6523438 189.861328,42.9023438 C191.162109,42.1523438 192.726562,41.7773438 194.554688,41.7773438 C195.632812,41.7773438 196.617188,41.9121094 197.507812,42.1816406 C198.398438,42.4511719 199.207031,42.8203125 199.933594,43.2890625 C200.660156,43.78125 201.304688,44.3554688 201.867188,45.0117188 C202.429688,45.6679688 202.921875,46.3945313 203.34375,47.1914063 L203.34375,64.6289063 C202.921875,65.4492188 202.429688,66.1992188 201.867188,66.8789063 C201.304688,67.5585938 200.671875,68.1445312 199.96875,68.6367188 C199.242188,69.1289062 198.427734,69.5097656 197.525391,69.7792969 C196.623047,70.0488281 195.609375,70.1835938 194.484375,70.1835938 C192.679688,70.1835938 191.132812,69.8144531 189.84375,69.0761719 C188.554688,68.3378906 187.5,67.3359375 186.679688,66.0703125 C185.835938,64.8046875 185.220703,63.3398438 184.833984,61.6757813 C184.447266,60.0117188 184.253906,58.2539062 184.253906,56.4023438 Z" id="Shape"></path>
                    <path d="M247.078125,36.2578125 C244.3125,36.2578125 241.845703,36.8613281 239.677734,38.0683594 C237.509766,39.2753906 235.652344,40.921875 234.105469,43.0078125 L234.070312,42.0585938 L233.789062,36.9609375 L227.601562,36.9609375 L227.601562,75 L234.140625,75 L234.140625,50.6015625 C234.5625,49.4296875 235.095703,48.3691406 235.740234,47.4199219 C236.384766,46.4707031 237.140625,45.6679687 238.007812,45.0117188 C238.96875,44.2617188 240.09375,43.6933594 241.382812,43.3066406 C242.671875,42.9199219 244.113281,42.7265625 245.707031,42.7265625 C246.949219,42.7265625 248.138672,42.7910156 249.275391,42.9199219 C250.412109,43.0488281 251.613281,43.2539063 252.878906,43.5351562 L253.757812,37.171875 C253.101562,36.890625 252.123047,36.6679688 250.822266,36.5039062 C249.521484,36.3398438 248.273438,36.2578125 247.078125,36.2578125 Z" id="Path"></path>
                    <path d="M263.53125,55.6289063 L263.53125,56.4023438 C263.53125,59.1445313 263.929688,61.6875 264.726562,64.03125 C265.523438,66.375 266.671875,68.4140625 268.171875,70.1484375 C269.648438,71.8828125 271.458984,73.2421875 273.603516,74.2265625 C275.748047,75.2109375 278.167969,75.703125 280.863281,75.703125 C283.535156,75.703125 285.9375,75.2109375 288.070312,74.2265625 C290.203125,73.2421875 292.019531,71.8828125 293.519531,70.1484375 C294.996094,68.4140625 296.132812,66.375 296.929688,64.03125 C297.726562,61.6875 298.125,59.1445313 298.125,56.4023438 L298.125,55.6289063 C298.125,52.8867187 297.726562,50.3378906 296.929688,47.9824219 C296.132812,45.6269531 294.996094,43.5820312 293.519531,41.8476562 C292.019531,40.1132812 290.197266,38.7480469 288.052734,37.7519531 C285.908203,36.7558594 283.488281,36.2578125 280.792969,36.2578125 C278.121094,36.2578125 275.71875,36.7558594 273.585938,37.7519531 C271.453125,38.7480469 269.648438,40.1132812 268.171875,41.8476562 C266.671875,43.5820312 265.523438,45.6269531 264.726562,47.9824219 C263.929688,50.3378906 263.53125,52.8867187 263.53125,55.6289063 Z M270.035156,56.4023438 L270.035156,55.6289063 C270.035156,53.7773438 270.257812,52.0019531 270.703125,50.3027344 C271.148438,48.6035156 271.828125,47.109375 272.742188,45.8203125 C273.632812,44.53125 274.746094,43.5058594 276.082031,42.7441406 C277.417969,41.9824219 278.988281,41.6015625 280.792969,41.6015625 C282.597656,41.6015625 284.173828,41.9824219 285.521484,42.7441406 C286.869141,43.5058594 288,44.53125 288.914062,45.8203125 C289.804688,47.109375 290.478516,48.6035156 290.935547,50.3027344 C291.392578,52.0019531 291.621094,53.7773438 291.621094,55.6289063 L291.621094,56.4023438 C291.621094,58.2773438 291.398438,60.0644531 290.953125,61.7636719 C290.507812,63.4628906 289.839844,64.9570312 288.949219,66.2460938 C288.035156,67.5351562 286.904297,68.5546875 285.556641,69.3046875 C284.208984,70.0546875 282.644531,70.4296875 280.863281,70.4296875 C279.058594,70.4296875 277.476562,70.0546875 276.117188,69.3046875 C274.757812,68.5546875 273.632812,67.5351562 272.742188,66.2460938 C271.828125,64.9570312 271.148438,63.4628906 270.703125,61.7636719 C270.257812,60.0644531 270.035156,58.2773438 270.035156,56.4023438 Z" id="Shape"></path>
                </g>
                <path d="M14.8962143,55.9991301 L1.39424323,42.4004196 C0.171252257,41.1648141 0.171252257,39.1596663 1.39424323,37.9240607 C2.62073282,36.6919798 4.61108715,36.6919798 5.83757674,37.9240607 L21.5571328,53.7640686 C22.7836224,54.9996742 22.7836224,57.0012974 21.5571328,58.2369029 L5.83757674,74.0732958 C4.61108715,75.3089014 2.62073282,75.3089014 1.39424323,74.0732958 C0.171252257,72.8412149 0.171252257,70.8360671 1.39424323,69.6004615 L14.8962143,55.9991301 Z" id="Path" fill="#4E944F" fill-rule="nonzero"></path>
                <path d="M26.477,72 C26.477,70.3426286 27.9265077,69 29.7077692,69 L47.2462308,69 C49.0310923,69 50.477,70.3426286 50.477,72 C50.477,73.6573714 49.0310923,75 47.2462308,75 L29.7077692,75 C27.9265077,75 26.477,73.6573714 26.477,72 L26.477,72 Z" id="Path" fill="#E6B800" fill-rule="nonzero"></path>
            </g>
        </g>
    </g>
</svg>